<svg width="96" height="96" viewBox="0 0 96 96" fill="none" xmlns="http://www.w3.org/2000/svg">
<path d="M42.8469 8.70038L7.07256 23.5034C5.08313 24.3267 5.10374 27.1525 7.10564 27.9459L43.0297 42.1919C46.1863 43.4437 49.7014 43.4437 52.8575 42.1919L88.7821 27.9459C90.7835 27.1525 90.8046 24.3267 88.8147 23.5034L53.0408 8.70038C49.7768 7.34987 46.1104 7.34987 42.8469 8.70038Z" fill="#FFBF00"/>
<path d="M51.1309 49.9712V85.5595C51.1309 87.2523 52.8377 88.4113 54.4111 87.7876L94.4415 72.2497C95.3554 71.8874 95.9547 71.0044 95.9547 70.0216V34.4333C95.9547 32.7406 94.2479 31.5815 92.6745 32.2052L52.6441 47.7431C51.7307 48.1054 51.1309 48.9884 51.1309 49.9712Z" fill="#26B5F8"/>
<path d="M41.7833 51.8075L29.9032 57.5436L28.6969 58.1266L3.61871 70.1429C2.02902 70.9098 0 69.7513 0 67.9854V34.5828C0 33.9439 0.327593 33.3923 0.766915 32.9768C0.950237 32.7929 1.15797 32.6416 1.37383 32.5218C1.97315 32.1622 2.82793 32.0662 3.55471 32.3536L41.5837 47.4213C43.5167 48.1882 43.6686 50.8968 41.7833 51.8075Z" fill="#ED3049"/>
<path d="M41.7835 51.8074L29.9034 57.5436L0.76709 32.9768C0.950412 32.7929 1.15814 32.6416 1.37401 32.5218C1.97333 32.1622 2.82811 32.0662 3.55489 32.3536L41.5839 47.4213C43.5169 48.1882 43.6688 50.8968 41.7835 51.8074Z" fill="black" fill-opacity="0.25"/>
</svg>
