<svg width="44" height="96" viewBox="0 0 44 96" fill="none" xmlns="http://www.w3.org/2000/svg">
<path d="M6 35.8668C6 25.4123 6 20.1852 8.03454 16.1922C9.82419 12.6798 12.6798 9.82419 16.1922 8.03454C20.1852 6 25.4123 6 35.8668 6H60.1332C70.5876 6 75.8148 6 79.8078 8.03454C83.3202 9.82419 86.1759 12.6798 87.9654 16.1922C90 20.1852 90 25.4123 90 35.8668V60.1332C90 70.5876 90 75.8148 87.9654 79.8078C86.1759 83.3202 83.3202 86.1759 79.8078 87.9654C75.8148 90 70.5876 90 60.1332 90H35.8668C25.4123 90 20.1852 90 16.1922 87.9654C12.6798 86.1759 9.82419 83.3202 8.03454 79.8078C6 75.8148 6 70.5876 6 60.1332V35.8668Z" fill="white" fill-opacity="0.9"/>
<path d="M66.1545 25.5688L48.1932 39.5862L29.8213 25.5688V25.5726L29.8435 25.5916V45.2196L47.9862 59.5398L66.1545 45.7725V25.5688Z" fill="#EA4335"/>
<path d="M29.8455 72.0003V45.2196L29.8213 45.2007L29.8455 72.0003Z" fill="#C5221F"/>
<path d="M29.8204 25.5721L25.1294 22.1815C16.8054 17.73 15 27.5308 15 27.5308V34.3953L29.8204 45.2001V25.5721Z" fill="#C5221F"/>
<path d="M29.8213 25.5732V45.2013L29.8455 45.2202V25.5922L29.8213 25.5732Z" fill="#C5221F"/>
<path d="M15 34.4004V67.9773C15.2294 71.6712 18.4702 72.0009 18.4702 72.0009H29.8463L29.8204 45.2013L15 34.4004Z" fill="#4285F4"/>
</svg>
