<svg width="96" height="121" viewBox="0 0 96 121" fill="none" xmlns="http://www.w3.org/2000/svg">
<mask id="mask0_145_1200" style="mask-type:alpha" maskUnits="userSpaceOnUse" x="1" y="1" width="93" height="119">
<path d="M58.8945 1.73096H10.2055C5.47976 1.73096 1.61328 5.33725 1.61328 9.74496V111.255C1.61328 115.663 5.47976 119.27 10.2055 119.27H84.671C89.3967 119.27 93.2631 115.663 93.2631 111.255V33.7869L58.8945 1.73096Z" fill="white"/>
</mask>
<g mask="url(#mask0_145_1200)">
<path d="M58.8945 1.73096H10.2055C5.47976 1.73096 1.61328 5.33725 1.61328 9.74496V111.255C1.61328 115.663 5.47976 119.27 10.2055 119.27H84.671C89.3967 119.27 93.2631 115.663 93.2631 111.255V33.7869L73.2147 20.4302L58.8945 1.73096Z" fill="#0F9D58"/>
</g>
<mask id="mask1_145_1200" style="mask-type:alpha" maskUnits="userSpaceOnUse" x="1" y="1" width="93" height="119">
<path d="M58.8945 1.73096H10.2055C5.47976 1.73096 1.61328 5.33725 1.61328 9.74496V111.255C1.61328 115.663 5.47976 119.27 10.2055 119.27H84.671C89.3967 119.27 93.2631 115.663 93.2631 111.255V33.7869L58.8945 1.73096Z" fill="white"/>
</mask>
<g mask="url(#mask1_145_1200)">
<path d="M24.5259 59.1646V97.8988H70.3508V59.1646H24.5259ZM44.5743 92.5562H30.2541V85.8778H44.5743V92.5562ZM44.5743 81.8708H30.2541V75.1925H44.5743V81.8708ZM44.5743 71.1855H30.2541V64.5072H44.5743V71.1855ZM64.6227 92.5562H50.3024V85.8778H64.6227V92.5562ZM64.6227 81.8708H50.3024V75.1925H64.6227V81.8708ZM64.6227 71.1855H50.3024V64.5072H64.6227V71.1855Z" fill="#F1F1F1"/>
</g>
<mask id="mask2_145_1200" style="mask-type:alpha" maskUnits="userSpaceOnUse" x="1" y="1" width="93" height="119">
<path d="M58.8945 1.73096H10.2055C5.47976 1.73096 1.61328 5.33725 1.61328 9.74496V111.255C1.61328 115.663 5.47976 119.27 10.2055 119.27H84.671C89.3967 119.27 93.2631 115.663 93.2631 111.255V33.7869L58.8945 1.73096Z" fill="white"/>
</mask>
<g mask="url(#mask2_145_1200)">
<path d="M61.4077 31.4429L93.2632 61.1481V33.787L61.4077 31.4429Z" fill="url(#paint0_linear_145_1200)"/>
</g>
<mask id="mask3_145_1200" style="mask-type:alpha" maskUnits="userSpaceOnUse" x="1" y="1" width="93" height="119">
<path d="M58.8945 1.73096H10.2055C5.47976 1.73096 1.61328 5.33725 1.61328 9.74496V111.255C1.61328 115.663 5.47976 119.27 10.2055 119.27H84.671C89.3967 119.27 93.2631 115.663 93.2631 111.255V33.7869L58.8945 1.73096Z" fill="white"/>
</mask>
<g mask="url(#mask3_145_1200)">
<path d="M58.8945 1.73096V25.773C58.8945 30.2006 62.7395 33.7869 67.4867 33.7869H93.2632L58.8945 1.73096Z" fill="#87CEAC"/>
</g>
<mask id="mask4_145_1200" style="mask-type:alpha" maskUnits="userSpaceOnUse" x="1" y="1" width="93" height="119">
<path d="M58.8945 1.73096H10.2055C5.47976 1.73096 1.61328 5.33725 1.61328 9.74496V111.255C1.61328 115.663 5.47976 119.27 10.2055 119.27H84.671C89.3967 119.27 93.2631 115.663 93.2631 111.255V33.7869L58.8945 1.73096Z" fill="white"/>
</mask>
<g mask="url(#mask4_145_1200)">
<path d="M10.2055 1.73096C5.47976 1.73096 1.61328 5.33725 1.61328 9.74496V10.4128C1.61328 6.00509 5.47976 2.39879 10.2055 2.39879H58.8945V1.73096H10.2055Z" fill="white" fill-opacity="0.2"/>
</g>
<mask id="mask5_145_1200" style="mask-type:alpha" maskUnits="userSpaceOnUse" x="1" y="1" width="93" height="119">
<path d="M58.8945 1.73096H10.2055C5.47976 1.73096 1.61328 5.33725 1.61328 9.74496V111.255C1.61328 115.663 5.47976 119.27 10.2055 119.27H84.671C89.3967 119.27 93.2631 115.663 93.2631 111.255V33.7869L58.8945 1.73096Z" fill="white"/>
</mask>
<g mask="url(#mask5_145_1200)">
<path d="M84.671 118.602H10.2055C5.47976 118.602 1.61328 114.996 1.61328 110.588V111.256C1.61328 115.663 5.47976 119.27 10.2055 119.27H84.671C89.3967 119.27 93.2631 115.663 93.2631 111.256V110.588C93.2631 114.996 89.3967 118.602 84.671 118.602Z" fill="#263238" fill-opacity="0.2"/>
</g>
<mask id="mask6_145_1200" style="mask-type:alpha" maskUnits="userSpaceOnUse" x="1" y="1" width="93" height="119">
<path d="M58.8945 1.73096H10.2055C5.47976 1.73096 1.61328 5.33725 1.61328 9.74496V111.255C1.61328 115.663 5.47976 119.27 10.2055 119.27H84.671C89.3967 119.27 93.2631 115.663 93.2631 111.255V33.7869L58.8945 1.73096Z" fill="white"/>
</mask>
<g mask="url(#mask6_145_1200)">
<path d="M67.4867 33.7869C62.7395 33.7869 58.8945 30.2006 58.8945 25.7729V26.4407C58.8945 30.8685 62.7395 34.4547 67.4867 34.4547H93.2632V33.7869H67.4867Z" fill="#263238" fill-opacity="0.1"/>
</g>
<path d="M53.1893 12H9.08115C4.80007 12 1.29736 13.9636 1.29736 16.3636V71.6363C1.29736 74.0364 4.80007 76 9.08115 76H76.5406C80.8217 76 84.3244 74.0364 84.3244 71.6363V29.4545L53.1893 12Z" fill="url(#paint1_radial_145_1200)"/>
<defs>
<linearGradient id="paint0_linear_145_1200" x1="77.3372" y1="33.9934" x2="77.3372" y2="61.1522" gradientUnits="userSpaceOnUse">
<stop stop-color="#263238" stop-opacity="0.2"/>
<stop offset="1" stop-color="#263238" stop-opacity="0.02"/>
</linearGradient>
<radialGradient id="paint1_radial_145_1200" cx="0" cy="0" r="1" gradientUnits="userSpaceOnUse" gradientTransform="translate(3.9277 13.2721) scale(133.88 75.0539)">
<stop stop-color="white" stop-opacity="0.1"/>
<stop offset="1" stop-color="white" stop-opacity="0"/>
</radialGradient>
</defs>
</svg>
