<svg width="54" height="96" viewBox="0 0 54 96" fill="none" xmlns="http://www.w3.org/2000/svg">
<g clip-path="url(#clip0_115_152)">
<path d="M15.4075 1.5655C9.1112 -0.437135 2.36173 -0.523292 -3.98367 1.31797C-10.3291 3.15924 -15.9841 6.84484 -20.2305 11.9067L-4.45087 25.1731L15.4075 1.5655Z" fill="#1A73E8"/>
<path d="M5.31372 20.6002C6.98901 20.5948 8.6489 20.9201 10.1982 21.5574C11.7476 22.1948 13.1559 23.1317 14.3424 24.3144C15.5289 25.4971 16.4704 26.9023 17.1127 28.4496C17.7551 29.9969 18.0857 31.6557 18.0857 33.331C18.0904 36.3544 17.0083 39.2788 15.0369 41.571L34.8953 17.9634C30.8324 10.1108 23.8261 4.18578 15.4077 1.4834L-4.45068 25.1734C-3.26065 23.7387 -1.76823 22.5848 -0.0802011 21.7942C1.60782 21.0036 3.44973 20.5959 5.31372 20.6002Z" fill="#4285F4"/>
<path d="M5.31361 46.1028C1.92626 46.1028 -1.32235 44.7572 -3.71756 42.362C-6.11277 39.9668 -7.45839 36.7182 -7.45839 33.3308C-7.47086 30.3133 -6.40413 27.3908 -4.45079 25.0908L-24.7212 49.234C-20.5049 56.9862 -15.4331 64.2415 -9.60079 70.864L15.1192 41.5708C13.9208 43.0033 12.4199 44.1527 10.7246 44.9363C9.02916 45.7198 7.18126 46.1182 5.31361 46.1028Z" fill="#FBBC04"/>
<path d="M14.5833 78.857C25.7073 61.4706 38.6441 53.5602 38.6441 33.537C38.644 28.1881 37.3582 22.9175 34.8949 18.1694L-9.60107 70.8642C-7.70587 73.3362 -5.81067 75.973 -3.95668 78.857C2.84132 89.3218 0.946125 95.5842 5.31332 95.5842C9.68052 95.5842 7.78532 89.3218 14.5833 78.857Z" fill="#34A853"/>
</g>
<defs>
<clipPath id="clip0_115_152">
<rect width="96" height="96" fill="white" transform="translate(-42.4375)"/>
</clipPath>
</defs>
</svg>
