<svg width="96" height="96" viewBox="0 0 96 96" fill="none" xmlns="http://www.w3.org/2000/svg">
<path d="M6 35.8668C6 25.4123 6 20.1852 8.03454 16.1922C9.82419 12.6798 12.6798 9.82419 16.1922 8.03454C20.1852 6 25.4123 6 35.8668 6H60.1332C70.5876 6 75.8148 6 79.8078 8.03454C83.3202 9.82419 86.1759 12.6798 87.9654 16.1922C90 20.1852 90 25.4123 90 35.8668V60.1332C90 70.5876 90 75.8148 87.9654 79.8078C86.1759 83.3202 83.3202 86.1759 79.8078 87.9654C75.8148 90 70.5876 90 60.1332 90H35.8668C25.4123 90 20.1852 90 16.1922 87.9654C12.6798 86.1759 9.82419 83.3202 8.03454 79.8078C6 75.8148 6 70.5876 6 60.1332V35.8668Z" fill="white" fill-opacity="0.9"/>
<path d="M48.0057 37.3521L37.623 19.0289C37.9677 18.6779 38.3643 18.4477 38.7609 18.293C35.6994 19.3006 34.2945 22.7388 34.2945 22.7388L15.3268 56.2035C15.06 57.2529 14.9858 58.2 15.0192 59.0343H35.7216L48.0057 37.3521Z" fill="#34A853"/>
<path d="M48.0059 37.3521L60.29 59.0343H80.9924C81.0257 58.2 80.9516 57.2529 80.6846 56.2035L61.7171 22.7388C61.7171 22.7388 60.3086 19.3006 57.2504 18.293C57.6434 18.4477 58.0436 18.6779 58.3883 19.0289L48.0059 37.3521Z" fill="#FBBC05"/>
<path d="M48.0057 37.3542L58.3884 19.0311C58.0437 18.6801 57.6432 18.4499 57.2505 18.2952C56.7981 18.148 56.3127 18.0499 55.7862 18.0234H55.2375H40.7739H40.2252C39.7026 18.0461 39.2133 18.1442 38.7609 18.2952C38.3682 18.4499 37.9677 18.6801 37.623 19.0311L48.0057 37.3542Z" fill="#188038"/>
<path d="M35.7246 59.0347L25.4606 77.1505C25.4606 77.1505 25.1196 76.9843 24.6562 76.6408C26.113 77.7619 27.529 77.9995 27.529 77.9995H67.8402C70.0641 77.9995 70.5276 77.1505 70.5276 77.1505C70.5348 77.1466 70.5387 77.1427 70.5459 77.1391L60.2895 59.0347H35.7246Z" fill="#4285F4"/>
<path d="M35.7258 59.0347H15.0234C15.1272 61.4956 16.1948 62.9335 16.1948 62.9335L16.9732 64.2844C17.0288 64.3639 17.0622 64.4092 17.0622 64.4092L18.7562 67.3831L22.5593 74.0029C22.6705 74.2708 22.8002 74.5159 22.9374 74.7499C22.9893 74.8294 23.0375 74.9161 23.0931 74.9917C23.1079 75.0142 23.1227 75.037 23.1376 75.0595C23.6083 75.7237 24.1347 76.237 24.661 76.6408C25.1244 76.9882 25.4654 77.1505 25.4654 77.1505L35.7258 59.0347Z" fill="#1967D2"/>
<path d="M60.29 59.0347H80.9921C80.8883 61.4956 79.8209 62.9335 79.8209 62.9335L79.0424 64.2844C78.9869 64.3639 78.9536 64.4092 78.9536 64.4092L77.2595 67.3831L73.4564 74.0029C73.3451 74.2708 73.2155 74.5159 73.0784 74.7499C73.0265 74.8294 72.9782 74.9161 72.9227 74.9917C72.9077 75.0142 72.893 75.037 72.878 75.0595C72.4073 75.7237 71.8811 76.237 71.3546 76.6408C70.8914 76.9882 70.5503 77.1505 70.5503 77.1505L60.29 59.0347Z" fill="#EA4335"/>
</svg>
