<svg width="96" height="96" viewBox="0 0 96 96" fill="none" xmlns="http://www.w3.org/2000/svg">
<path d="M94.1846 57.4856C93.6264 55.7951 92.1642 54.6176 90.2733 54.3351C89.3817 54.202 88.3606 54.2587 87.1522 54.5078C85.0461 54.9423 83.4835 55.1078 82.3431 55.1398C86.6475 47.8725 90.1475 39.5852 92.1624 31.7842C95.4206 19.17 93.6795 13.4234 91.645 10.8242C86.2606 3.94415 78.405 0.248153 68.9279 0.135062C63.8722 0.0732441 59.434 1.07143 57.1188 1.78924C54.9631 1.40888 52.6453 1.19652 50.2133 1.15724C45.6544 1.08452 41.6264 2.07834 38.1846 4.12088C36.2791 3.47652 33.221 2.56815 29.6893 1.98852C21.3831 0.62488 14.6886 1.68743 9.79186 5.1467C3.86241 9.33506 1.11368 16.6122 1.62205 26.7758C1.7835 30.0027 3.58859 39.8209 6.43077 49.1322C8.06423 54.4842 9.80605 58.9285 11.6079 62.3431C14.1631 67.1849 16.8973 70.0362 19.9668 71.0602C21.6871 71.6332 24.813 72.0347 28.1006 69.2965C28.5173 69.8012 29.0733 70.3027 29.8111 70.7685C30.7482 71.3594 31.894 71.8423 33.0384 72.1285C37.1624 73.1594 41.0253 72.9016 44.321 71.4565C44.3413 72.0427 44.357 72.6027 44.37 73.0863C44.3919 73.8707 44.4137 74.6398 44.4424 75.3591C44.6377 80.2223 44.9686 84.0038 45.949 86.6496C46.0028 86.7951 46.0751 87.0169 46.1515 87.2522C46.6406 88.7496 47.4584 91.2565 49.5391 93.2198C51.6937 95.2536 54.2999 95.8772 56.6868 95.8772C57.8839 95.8772 59.026 95.7202 60.0279 95.5056C63.5988 94.7402 67.6544 93.5743 70.5882 89.3969C73.362 85.4478 74.7104 79.4998 74.9544 70.1278C74.986 69.8627 75.0151 69.6096 75.0431 69.3685L75.1013 68.8732L75.7548 68.9307L75.9231 68.942C79.5602 69.1078 84.0075 68.3365 86.7388 67.0678C88.897 66.0663 95.813 62.4151 94.1846 57.4856Z" fill="black"/>
<path d="M87.966 58.4445C77.1514 60.6754 76.4078 57.0139 76.4078 57.0139C87.826 40.071 92.5994 18.5645 88.4805 13.3008C77.2427 -1.05734 57.79 5.73321 57.4653 5.90921L57.3609 5.92812C55.2242 5.48448 52.8333 5.22048 50.1456 5.17648C45.2525 5.09648 41.5405 6.45939 38.7238 8.59539C38.7238 8.59539 4.02198 -5.70061 5.63616 26.575C5.97943 33.4412 15.4776 78.5289 26.8063 64.9103C30.9471 59.9303 34.9482 55.7198 34.9482 55.7198C36.9351 57.0398 39.314 57.7132 41.8078 57.4714L42.0016 57.307C41.9413 57.9252 41.9689 58.5299 42.0791 59.2459C39.1605 62.5067 40.0183 63.079 34.1842 64.2801C28.2805 65.4969 31.7485 67.6627 34.0129 68.2292C36.758 68.9154 43.1085 69.8878 47.3994 63.8808L47.2285 64.5663C48.3718 65.4823 49.1747 70.5238 49.0402 75.0943C48.9056 79.6645 48.8158 82.8023 49.7165 85.2532C50.618 87.7041 51.5158 93.2187 59.1856 91.5754C65.594 90.2019 68.9151 86.643 69.3773 80.7063C69.7049 76.4859 70.4471 77.1099 70.4936 73.3365L71.0889 71.5503C71.7751 65.8292 71.198 63.9834 75.146 64.8419L76.106 64.9263C79.0114 65.0583 82.8151 64.4587 85.0474 63.4212C89.854 61.1907 92.7049 57.4659 87.9653 58.4445H87.966Z" fill="#336791"/>
<path d="M40.7549 29.6453C39.7804 29.5097 38.8978 29.6351 38.4513 29.9733C38.2004 30.1635 38.1226 30.3839 38.1015 30.5355C38.0455 30.9373 38.3269 31.3817 38.5 31.6108C38.9895 32.2595 39.7044 32.7053 40.412 32.8035C40.5146 32.818 40.6168 32.8246 40.7182 32.8246C41.8982 32.8246 42.9713 31.9057 43.0658 31.2275C43.184 30.378 41.9509 29.8115 40.7549 29.6453ZM73.04 29.6722C72.9469 29.0064 71.7622 28.8166 70.6378 28.9729C69.5149 29.1293 68.4262 29.6362 68.5171 30.3035C68.5898 30.8224 69.5269 31.7082 70.636 31.7082C70.7298 31.7082 70.8244 31.702 70.9197 31.6886C71.66 31.586 72.2033 31.1159 72.4615 30.8449C72.8542 30.4319 73.0818 29.9715 73.04 29.6722Z" fill="white" fill-opacity="0.9"/>
<path d="M91.5641 58.1907C91.1518 56.9438 89.8245 56.5427 87.6194 56.9979C81.0721 58.3492 78.7274 57.4132 77.9576 56.8463C83.0467 49.0936 87.2332 39.7219 89.4918 30.9783C90.5616 26.8365 91.1525 22.9899 91.2008 19.8547C91.2543 16.4136 90.6681 13.8848 89.4594 12.3401C84.5859 6.11285 77.4332 2.77248 68.775 2.68085C62.8227 2.61394 57.7936 4.13721 56.8187 4.56558C54.7656 4.05503 52.5274 3.74158 50.0907 3.70158C45.6223 3.62921 41.7598 4.69903 38.5619 6.87976C37.1728 6.36267 33.583 5.1303 29.1928 4.42303C21.603 3.20121 15.5718 4.12703 11.2678 7.17612C6.13212 10.8147 3.76121 17.3187 4.22048 26.507C4.37503 29.5983 6.13648 39.1081 8.91612 48.2154C12.575 60.2023 16.5525 66.9881 20.7372 68.3841C21.227 68.5474 21.7918 68.6616 22.4147 68.6616C23.9412 68.6616 25.8128 67.9736 27.7601 65.6325C30.1352 62.7832 32.5921 60.0032 35.1278 57.2958C36.7728 58.1787 38.5801 58.6718 40.4285 58.7212C40.4321 58.7696 40.4368 58.8179 40.4412 58.8659C40.123 59.2454 39.8115 59.6303 39.5067 60.0205C38.2259 61.6463 37.9594 61.9848 33.8368 62.8336C32.6641 63.0758 29.5496 63.7176 29.5038 65.9008C29.4543 68.2863 33.1856 69.2881 33.6107 69.3943C35.0921 69.7652 36.5194 69.9481 37.8805 69.9481C41.1907 69.9481 44.1038 68.8601 46.4318 66.755C46.3601 75.259 46.7147 83.6387 47.7358 86.1918C48.5721 88.2819 50.615 93.3899 57.0681 93.3896C58.015 93.3896 59.0572 93.2794 60.2038 93.0336C66.9387 91.5899 69.8634 88.6132 70.9947 82.0507C71.6001 78.5434 72.639 70.1685 73.1278 65.6761C74.159 65.9979 75.4867 66.1452 76.9219 66.1448C79.9154 66.1448 83.3696 65.5088 85.5358 64.5034C87.9692 63.3732 92.3605 60.6001 91.5641 58.1907ZM75.5256 27.8343C75.5034 29.1605 75.3208 30.3645 75.1274 31.6212C74.919 32.9728 74.7038 34.3703 74.6496 36.0667C74.5961 37.7176 74.8023 39.4339 75.0016 41.0939C75.4045 44.4467 75.8179 47.8983 74.2176 51.3041C73.9517 50.8331 73.7149 50.3462 73.5085 49.8463C73.3096 49.3641 72.8776 48.5896 72.2794 47.5176C69.9525 43.3445 64.5034 33.5721 67.2928 29.5845C68.1238 28.3976 70.2325 27.1772 75.5256 27.8343ZM69.1096 5.3663C76.8674 5.53758 83.0041 8.43976 87.3489 13.9918C90.6812 18.2503 87.0118 37.6274 76.3889 54.3441C76.282 54.2083 76.1746 54.0729 76.0667 53.9379L75.9321 53.7699C78.6772 49.2365 78.1405 44.751 77.6627 40.7743C77.4663 39.1423 77.2808 37.6008 77.3281 36.1528C77.3768 34.6183 77.5798 33.3019 77.7761 32.0292C78.0172 30.4608 78.2627 28.8379 78.195 26.9248C78.2456 26.7241 78.2659 26.487 78.2394 26.2056C78.0667 24.371 75.9721 18.8805 71.703 13.911C69.3678 11.1928 65.9623 8.15103 61.3125 6.09939C63.3125 5.68485 66.0474 5.2983 69.1096 5.3663ZM25.6994 63.919C23.5539 66.4987 22.0725 66.0041 21.5852 65.8419C18.4107 64.783 14.727 58.0732 11.4794 47.4332C8.66921 38.2267 7.02703 28.9688 6.89685 26.3728C6.48666 18.1627 8.47685 12.4408 12.8125 9.36594C19.8685 4.3623 31.4692 7.35721 36.1307 8.87612C36.0638 8.9423 35.9939 9.00412 35.9278 9.07139C28.2783 16.7965 28.4598 29.995 28.4787 30.8019C28.4779 31.1132 28.5041 31.5539 28.5398 32.1601C28.6714 34.3801 28.9165 38.5118 28.2619 43.1907C27.6539 47.5387 28.9943 51.7943 31.9387 54.8667C32.2408 55.1814 32.5584 55.4809 32.8903 55.7641C31.5798 57.1678 28.7314 60.2718 25.6994 63.919ZM33.8736 53.0125C31.5005 50.5361 30.4227 47.0918 30.9161 43.5616C31.607 38.619 31.3521 34.3143 31.215 32.0016C31.1958 31.6779 31.1787 31.3943 31.1688 31.1707C32.2863 30.1798 37.4648 27.4052 41.1579 28.2514C42.843 28.6372 43.8699 29.7848 44.2968 31.7587C46.5063 41.9779 44.5892 46.2372 43.0488 49.6601C42.7314 50.3652 42.4314 51.0318 42.1754 51.7212L41.9768 52.2543C41.4743 53.6019 41.0067 54.855 40.7168 56.0448C38.1939 56.0376 35.7398 54.9598 33.8736 53.0121V53.0125ZM34.2608 66.7943C33.5241 66.6103 32.8616 66.2907 32.4728 66.0256C32.7976 65.8728 33.3754 65.6648 34.3776 65.4583C39.2274 64.4601 39.9765 63.7554 41.6121 61.6787C41.987 61.2023 42.4121 60.6627 43.0008 60.0052L43.0016 60.0045C43.8783 59.0227 44.2794 59.1892 45.0067 59.491C45.5961 59.7347 46.1703 60.4736 46.403 61.2867C46.5132 61.6707 46.6368 62.3994 46.2321 62.9667C42.8154 67.7507 37.8365 67.6892 34.2608 66.7943ZM59.6423 90.4132C53.7092 91.6845 51.6085 88.6572 50.2241 85.1965C49.3307 82.9623 48.8914 72.8874 49.203 61.7612C49.207 61.6132 49.1859 61.4703 49.1452 61.3358C49.1088 61.0701 49.0534 60.8073 48.9794 60.5496C48.5161 58.9307 47.387 57.5765 46.0325 57.015C45.4943 56.7921 44.5067 56.383 43.3198 56.6867C43.5728 55.6438 44.0118 54.4659 44.4878 53.1907L44.6874 52.6543C44.9121 52.0496 45.1943 51.423 45.4925 50.7598C47.1045 47.1787 49.3121 42.2736 46.9161 31.1925C46.0187 27.0419 43.0216 25.015 38.4783 25.4859C35.7547 25.7678 33.2627 26.8667 32.0198 27.4968C31.7525 27.6321 31.5081 27.763 31.2798 27.8903C31.6267 23.7085 32.9372 15.8932 37.8398 10.9485C40.9267 7.83576 45.0376 6.2983 50.0463 6.38121C59.9154 6.54267 66.2441 11.6074 69.8158 15.8281C72.8936 19.4648 74.5601 23.1285 75.2252 25.1045C70.2234 24.5958 66.8216 25.583 65.0972 28.0485C61.3456 33.4114 67.1496 43.8201 69.939 48.8227C70.4507 49.7394 70.8921 50.5318 71.031 50.8685C71.9394 53.0699 73.1154 54.5398 73.9739 55.6125C74.2372 55.9412 74.4925 56.2601 74.6867 56.5387C73.1718 56.9754 70.4507 57.9845 70.6987 63.0285C70.4987 65.5594 69.0765 77.4089 68.3539 81.5954C67.4001 87.1263 65.3648 89.1863 59.6423 90.4136V90.4132ZM84.4074 62.0728C82.8583 62.7918 80.2659 63.331 77.8034 63.447C75.0834 63.5743 73.6987 63.1423 73.3728 62.8765C73.2201 59.7332 74.3899 59.4049 75.6281 59.0572C75.8227 59.0027 76.0125 58.9492 76.1958 58.8852C76.3096 58.9779 76.4343 59.0699 76.571 59.1601C78.7572 60.603 82.6565 60.7587 88.1616 59.6223L88.2219 59.6103C87.4794 60.3045 86.2088 61.2361 84.4074 62.0728Z" fill="white" fill-opacity="0.9"/>
</svg>
