<svg width="96" height="96" viewBox="0 0 96 96" fill="none" xmlns="http://www.w3.org/2000/svg">
<path d="M79.5006 44.9988C83.6424 44.9988 87 41.6412 87 37.4994C87 33.3576 83.6421 30 79.5003 30C75.3582 30 72 33.3579 72 37.5V44.9988H79.5006ZM58.5 44.9988C62.6421 44.9988 66 41.6409 66 37.4988V16.5C66 12.3579 62.6421 9 58.5 9C54.3579 9 51 12.3579 51 16.5V37.4988C51 41.6409 54.3579 44.9988 58.5 44.9988Z" fill="#2EB67D"/>
<path d="M16.4994 51.001C12.3576 51.001 9 54.3586 9 58.5004C9 62.6422 12.3579 65.9998 16.4997 65.9998C20.6418 65.9998 24 62.6419 24 58.4998V51.001H16.4994ZM37.5 51.001C33.3579 51.001 30 54.3589 30 58.501V79.4998C30 83.6419 33.3579 86.9998 37.5 86.9998C41.6421 86.9998 45 83.6419 45 79.4998V58.501C45 54.3589 41.6421 51.001 37.5 51.001Z" fill="#E01E5A"/>
<path d="M51.001 79.5006C51.001 83.6424 54.3586 87 58.5004 87C62.6422 87 65.9998 83.6421 65.9998 79.5003C65.9998 75.3582 62.6419 72 58.4998 72H51.001V79.5006ZM51.001 58.5C51.001 62.6421 54.3589 66 58.501 66H79.4998C83.6419 66 86.9998 62.6421 86.9998 58.5C86.9998 54.3579 83.6419 51 79.4998 51H58.501C54.3589 51 51.001 54.3579 51.001 58.5Z" fill="#ECB22E"/>
<path d="M44.9988 16.4994C44.9988 12.3576 41.6412 9 37.4994 9C33.3576 9 30 12.3579 30 16.4997C30 20.6418 33.3579 24 37.5 24H44.9988V16.4994ZM44.9988 37.5C44.9988 33.3579 41.6409 30 37.4988 30H16.5C12.3579 30 9 33.3579 9 37.5C9 41.6421 12.3579 45 16.5 45H37.4988C41.6409 45 44.9988 41.6421 44.9988 37.5Z" fill="#36C5F0"/>
</svg>
